<svg width="20" height="20" viewBox="0 0 20 20" fill="none" xmlns="http://www.w3.org/2000/svg">
<path d="M12.5454 10L17.4728 5.07255C18.1757 4.36966 18.1757 3.23006 17.4728 2.52717C16.7699 1.82428 15.6304 1.82428 14.9275 2.52717L10 7.45462L5.07255 2.52717C4.36966 1.82428 3.23006 1.82428 2.52717 2.52717C1.82428 3.23006 1.82428 4.36966 2.52717 5.07255L7.45462 10L2.52717 14.9275C1.82428 15.6303 1.82428 16.7699 2.52717 17.4728C2.87862 17.8242 3.33923 18 3.79984 18C4.26045 18 4.7211 17.8243 5.07251 17.4728L10 12.5454L14.9275 17.4728C15.2789 17.8242 15.7395 18 16.2001 18C16.6607 18 17.1213 17.8243 17.4728 17.4728C18.1757 16.7699 18.1757 15.6303 17.4728 14.9275L12.5454 10Z" fill="#1A141F"/>
</svg>
