<svg width="92" height="92" viewBox="0 0 92 92" fill="none" xmlns="http://www.w3.org/2000/svg">
<path opacity="0.5" d="M21.4079 81.351C39.0846 81.351 51.2235 90.5076 59.7412 90.5076C68.2589 90.5076 86.1478 85.6111 86.1478 46.4268C86.1478 7.24248 62.0821 1.48993 52.7134 1.48993C8.84219 1.48993 -9.8977 81.351 21.4079 81.351Z" fill="#F5F3F7"/>
<path d="M66.2051 5.41736L68.0121 3.61031L71.6262 7.22441L69.8192 9.03146L66.2051 5.41736Z" fill="#ABA7AF"/>
<path d="M10.5337 31.4031L8.25148 30.2532L10.5514 25.6888L12.8336 26.8387L10.5337 31.4031Z" fill="#ABA7AF"/>
<path d="M76.5942 15.8114L78.4013 14.0044L82.0154 17.6185L80.2083 19.4255L76.5942 15.8114Z" fill="#ABA7AF"/>
<path d="M17.1497 18.2805L14.8675 17.1306L17.1673 12.5662L19.4496 13.7161L17.1497 18.2805Z" fill="#ABA7AF"/>
<path d="M76.1348 7.21567L79.7489 3.60157L81.5559 5.40862L77.9418 9.02272L76.1348 7.21567Z" fill="#ABA7AF"/>
<path d="M9.13049 21.4102L4.56608 19.1103L5.71603 16.8281L10.2804 19.128L9.13049 21.4102Z" fill="#ABA7AF"/>
<path opacity="0.5" d="M69.6389 72.1945H22.3611C19.5372 72.1945 17.25 69.9072 17.25 67.0834V28.75H74.75V67.0834C74.75 69.9072 72.4628 72.1945 69.6389 72.1945Z" fill="#F5F3F7"/>
<path d="M74.75 28.7501H17.25V24.9168C17.25 22.0929 19.5372 19.8057 22.3611 19.8057H69.6389C72.4628 19.8057 74.75 22.0929 74.75 24.9168V28.7501Z" fill="#D51A52"/>
<path d="M28.1111 19.8057H22.3611C19.5372 19.8057 17.25 22.0929 17.25 24.9168V28.7501H23V24.9168C23 22.0929 25.2872 19.8057 28.1111 19.8057Z" fill="#C61349"/>
<path d="M33.2222 48.5553C30.4034 48.5553 28.1111 46.2629 28.1111 43.4442C28.1111 40.6254 30.4034 38.333 33.2222 38.333C36.041 38.333 38.3333 40.6254 38.3333 43.4442C38.3333 46.2629 36.041 48.5553 33.2222 48.5553ZM33.2222 42.1664C32.5169 42.1664 31.9444 42.7414 31.9444 43.4442C31.9444 44.1469 32.5169 44.7219 33.2222 44.7219C33.9275 44.7219 34.5 44.1469 34.5 43.4442C34.5 42.7414 33.9275 42.1664 33.2222 42.1664Z" fill="#1A141F"/>
<path d="M33.2222 45.2223C34.2041 45.2223 35 44.4263 35 43.4445C35 42.4626 34.2041 41.6667 33.2222 41.6667C32.2404 41.6667 31.4445 42.4626 31.4445 43.4445C31.4445 44.4263 32.2404 45.2223 33.2222 45.2223Z" fill="#D51A52"/>
<path d="M58.7777 48.5553C55.959 48.5553 53.6666 46.2629 53.6666 43.4442C53.6666 40.6254 55.959 38.333 58.7777 38.333C61.5965 38.333 63.8889 40.6254 63.8889 43.4442C63.8889 46.2629 61.5965 48.5553 58.7777 48.5553ZM58.7777 42.1664C58.0724 42.1664 57.5 42.7414 57.5 43.4442C57.5 44.1469 58.0724 44.7219 58.7777 44.7219C59.4831 44.7219 60.0555 44.1469 60.0555 43.4442C60.0555 42.7414 59.4831 42.1664 58.7777 42.1664Z" fill="#1A141F"/>
<path d="M58.7778 45.2222C59.7596 45.2222 60.5555 44.4263 60.5555 43.4444C60.5555 42.4626 59.7596 41.6667 58.7778 41.6667C57.7959 41.6667 57 42.4626 57 43.4444C57 44.4263 57.7959 45.2222 58.7778 45.2222Z" fill="#D51A52"/>
<path d="M59.5521 66.6004L58.1977 65.246C51.4714 58.5223 40.5286 58.5223 33.8023 65.246L32.4479 66.6004L29.7365 63.889L31.0909 62.5345C39.3121 54.3133 52.6853 54.3133 60.9065 62.5345L62.261 63.889L59.5521 66.6004Z" fill="#1A141F"/>
<path d="M69.6389 74.1109H22.3611C18.4844 74.1109 15.3334 70.9599 15.3334 67.0832V24.9165C15.3334 21.0397 18.4844 17.8887 22.3611 17.8887H69.6389C73.5157 17.8887 76.6667 21.0397 76.6667 24.9165V67.0832C76.6667 70.9599 73.5157 74.1109 69.6389 74.1109ZM22.3611 21.7221C20.6004 21.7221 19.1667 23.1557 19.1667 24.9165V67.0832C19.1667 68.8439 20.6004 70.2776 22.3611 70.2776H69.6389C71.3997 70.2776 72.8334 68.8439 72.8334 67.0832V24.9165C72.8334 23.1557 71.3997 21.7221 69.6389 21.7221H22.3611Z" fill="#1A141F"/>
<path d="M17.25 26.833H74.75V30.6664H17.25V26.833Z" fill="#1A141F"/>
<path d="M5.11108 70.2775H86.8889V74.1108H5.11108V70.2775Z" fill="#1A141F"/>
</svg>
