<svg width="28" height="23" viewBox="0 0 28 23" fill="none" xmlns="http://www.w3.org/2000/svg">
<path d="M0 1.875C0 1.37772 0.184375 0.900806 0.512563 0.549175C0.840752 0.197544 1.28587 0 1.75 0H26.25C26.7141 0 27.1593 0.197544 27.4874 0.549175C27.8156 0.900806 28 1.37772 28 1.875C28 2.37228 27.8156 2.84919 27.4874 3.20082C27.1593 3.55246 26.7141 3.75 26.25 3.75H1.75C1.28587 3.75 0.840752 3.55246 0.512563 3.20082C0.184375 2.84919 0 2.37228 0 1.875ZM0 11.25C0 10.7527 0.184375 10.2758 0.512563 9.92418C0.840752 9.57254 1.28587 9.375 1.75 9.375H26.25C26.7141 9.375 27.1593 9.57254 27.4874 9.92418C27.8156 10.2758 28 10.7527 28 11.25C28 11.7473 27.8156 12.2242 27.4874 12.5758C27.1593 12.9275 26.7141 13.125 26.25 13.125H1.75C1.28587 13.125 0.840752 12.9275 0.512563 12.5758C0.184375 12.2242 0 11.7473 0 11.25ZM0 20.625C0 20.1277 0.184375 19.6508 0.512563 19.2992C0.840752 18.9475 1.28587 18.75 1.75 18.75H26.25C26.7141 18.75 27.1593 18.9475 27.4874 19.2992C27.8156 19.6508 28 20.1277 28 20.625C28 21.1223 27.8156 21.5992 27.4874 21.9508C27.1593 22.3025 26.7141 22.5 26.25 22.5H1.75C1.28587 22.5 0.840752 22.3025 0.512563 21.9508C0.184375 21.5992 0 21.1223 0 20.625Z" fill="#1A141F"/>
</svg>
