<svg width="92" height="92" viewBox="0 0 92 92" fill="none" xmlns="http://www.w3.org/2000/svg">
<path d="M21.4079 10.649C39.0846 10.649 51.2235 1.49249 59.7412 1.49249C68.2589 1.49249 86.1478 6.38894 86.1478 45.5733C86.1478 84.7576 62.0821 90.5076 52.7134 90.5076C8.84219 90.5102 -9.8977 10.649 21.4079 10.649Z" fill="#F5F3F7"/>
<path d="M77.9444 15.3335C75.831 15.3335 74.1111 13.6136 74.1111 11.5001C74.1111 9.3867 75.831 7.66681 77.9444 7.66681C80.0579 7.66681 81.7778 9.3867 81.7778 11.5001C81.7778 13.6136 80.0579 15.3335 77.9444 15.3335ZM77.9444 10.2224C77.2391 10.2224 76.6666 10.7974 76.6666 11.5001C76.6666 12.2029 77.2391 12.7779 77.9444 12.7779C78.6498 12.7779 79.2222 12.2029 79.2222 11.5001C79.2222 10.7974 78.6498 10.2224 77.9444 10.2224Z" fill="#ABA7AF"/>
<path d="M67 11.9998C65.346 11.9998 64 10.6538 64 8.99982C64 7.34582 65.346 5.99982 67 5.99982C68.654 5.99982 70 7.34582 70 8.99982C70 10.6538 68.654 11.9998 67 11.9998ZM67 7.99982C66.448 7.99982 66 8.44982 66 8.99982C66 9.54982 66.448 9.99982 67 9.99982C67.552 9.99982 68 9.54982 68 8.99982C68 8.44982 67.552 7.99982 67 7.99982Z" fill="#ABA7AF"/>
<path d="M81 22.9998C79.8973 22.9998 79 22.1025 79 20.9998C79 19.8972 79.8973 18.9998 81 18.9998C82.1027 18.9998 83 19.8972 83 20.9998C83 22.1025 82.1027 22.9998 81 22.9998ZM81 20.3332C80.632 20.3332 80.3333 20.6332 80.3333 20.9998C80.3333 21.3665 80.632 21.6665 81 21.6665C81.368 21.6665 81.6667 21.3665 81.6667 20.9998C81.6667 20.6332 81.368 20.3332 81 20.3332Z" fill="#ABA7AF"/>
<path d="M69.6389 72.1945H22.3611C19.5372 72.1945 17.25 69.9072 17.25 67.0834V28.75H74.75V67.0834C74.75 69.9072 72.4628 72.1945 69.6389 72.1945Z" fill="#F5F3F7"/>
<path d="M74.75 28.7499H17.25V24.9165C17.25 22.0926 19.5372 19.8054 22.3611 19.8054H69.6389C72.4628 19.8054 74.75 22.0926 74.75 24.9165V28.7499Z" fill="#00B998"/>
<path d="M28.1111 19.8054H22.3611C19.5372 19.8054 17.25 22.0926 17.25 24.9165V28.7499H23V24.9165C23 22.0926 25.2872 19.8054 28.1111 19.8054Z" fill="#04A386"/>
<path d="M46 66.4345C40.6001 66.4345 35.2028 64.3798 31.0935 60.2705L29.739 58.916L32.4505 56.2046L33.8049 57.559C40.5311 64.2827 51.474 64.2827 58.2002 57.559L59.5547 56.2046L62.2661 58.916L60.9117 60.2705C56.7972 64.3798 51.3999 66.4345 46 66.4345Z" fill="#1A141F"/>
<path d="M69.6388 74.111H22.361C18.4843 74.111 15.3333 70.96 15.3333 67.0832V24.9165C15.3333 21.0398 18.4843 17.8888 22.361 17.8888H69.6388C73.5156 17.8888 76.6666 21.0398 76.6666 24.9165V67.0832C76.6666 70.96 73.5156 74.111 69.6388 74.111ZM22.361 21.7221C20.6003 21.7221 19.1666 23.1558 19.1666 24.9165V67.0832C19.1666 68.844 20.6003 70.2777 22.361 70.2777H69.6388C71.3996 70.2777 72.8332 68.844 72.8332 67.0832V24.9165C72.8332 23.1558 71.3996 21.7221 69.6388 21.7221H22.361Z" fill="#1A141F"/>
<path d="M17.25 26.8336H74.75V30.6669H17.25V26.8336Z" fill="#1A141F"/>
<path d="M5.11108 70.2779H86.8889V74.1112H5.11108V70.2779Z" fill="#1A141F"/>
<path d="M33.2222 48.5558C30.4034 48.5558 28.1111 46.2635 28.1111 43.4447C28.1111 40.6259 30.4034 38.3336 33.2222 38.3336C36.041 38.3336 38.3333 40.6259 38.3333 43.4447C38.3333 46.2635 36.041 48.5558 33.2222 48.5558ZM33.2222 42.1669C32.5169 42.1669 31.9444 42.7419 31.9444 43.4447C31.9444 44.1474 32.5169 44.7225 33.2222 44.7225C33.9275 44.7225 34.5 44.1474 34.5 43.4447C34.5 42.7419 33.9275 42.1669 33.2222 42.1669Z" fill="#1A141F"/>
<path d="M58.7777 48.5558C55.959 48.5558 53.6666 46.2635 53.6666 43.4447C53.6666 40.6259 55.959 38.3336 58.7777 38.3336C61.5965 38.3336 63.8889 40.6259 63.8889 43.4447C63.8889 46.2635 61.5965 48.5558 58.7777 48.5558ZM58.7777 42.1669C58.0724 42.1669 57.5 42.7419 57.5 43.4447C57.5 44.1474 58.0724 44.7225 58.7777 44.7225C59.4831 44.7225 60.0555 44.1474 60.0555 43.4447C60.0555 42.7419 59.4831 42.1669 58.7777 42.1669Z" fill="#1A141F"/>
<path d="M33 44.9998C34.1046 44.9998 35 44.1044 35 42.9998C35 41.8952 34.1046 40.9998 33 40.9998C31.8954 40.9998 31 41.8952 31 42.9998C31 44.1044 31.8954 44.9998 33 44.9998Z" fill="#00B998"/>
<path d="M59 44.9998C60.1046 44.9998 61 44.1044 61 42.9998C61 41.8952 60.1046 40.9998 59 40.9998C57.8954 40.9998 57 41.8952 57 42.9998C57 44.1044 57.8954 44.9998 59 44.9998Z" fill="#00B998"/>
</svg>
